<?xml version="1.0" encoding="iso-8859-1"?>
<!-- Generator: Adobe Illustrator 19.0.0, SVG Export Plug-In . SVG Version: 6.00 Build 0)  -->
<svg version="1.1" id="Layer_1" xmlns="http://www.w3.org/2000/svg" xmlns:xlink="http://www.w3.org/1999/xlink" x="0px" y="0px"
	 viewBox="0 0 512 512" style="enable-background:new 0 0 512 512;" xml:space="preserve">
<g>
	<g>
		<path d="M289.415,260.851c4.466,0,8.084-3.618,8.084-8.084c0-4.466-3.619-8.084-8.084-8.084h-22.097v-9.162
			c0-4.466-3.618-8.084-8.084-8.084c-4.465,0-8.084,3.618-8.084,8.084v9.162h-7.006c-10.401,0-18.863,8.463-18.863,18.863v17.246
			c0,10.401,8.463,18.863,18.863,18.863h7.006v22.636h-22.097c-4.465,0-8.084,3.618-8.084,8.084c0,4.466,3.62,8.084,8.084,8.084
			h22.097v9.162c0,4.466,3.62,8.084,8.084,8.084c4.466,0,8.084-3.618,8.084-8.084v-9.162h7.006c10.401,0,18.863-8.463,18.863-18.863
			v-17.246c0-10.401-8.463-18.863-18.863-18.863h-7.006v-22.636H289.415z M251.149,283.486h-7.006c-1.485,0-2.695-1.208-2.695-2.695
			v-17.246c0-1.486,1.209-2.695,2.695-2.695h7.006V283.486z M274.324,299.655c1.486,0,2.695,1.208,2.695,2.695v17.246
			c0,1.486-1.208,2.695-2.695,2.695h-7.006v-22.636H274.324z"/>
	</g>
</g>
<g>
	<g>
		<path d="M294.804,105.634H169.768c-4.465,0-8.084,3.619-8.084,8.084s3.62,8.084,8.084,8.084h125.036
			c4.466,0,8.084-3.619,8.084-8.084S299.27,105.634,294.804,105.634z"/>
	</g>
</g>
<g>
	<g>
		<path d="M294.804,64.674H169.768c-4.465,0-8.084,3.618-8.084,8.084c0,4.466,3.62,8.084,8.084,8.084h125.036
			c4.466,0,8.084-3.618,8.084-8.084C302.888,68.292,299.27,64.674,294.804,64.674z"/>
	</g>
</g>
<g>
	<g>
		<path d="M266.779,146.594h-94.855c-4.465,0-8.084,3.618-8.084,8.084c0,4.466,3.62,8.084,8.084,8.084h94.855
			c4.466,0,8.084-3.618,8.084-8.084C274.863,150.212,271.245,146.594,266.779,146.594z"/>
	</g>
</g>
<g>
	<g>
		<path d="M342.232,146.594h-49.583c-4.466,0-8.084,3.618-8.084,8.084c0,4.466,3.618,8.084,8.084,8.084h49.583
			c4.466,0,8.084-3.618,8.084-8.084C350.316,150.212,346.697,146.594,342.232,146.594z"/>
	</g>
</g>
<g>
	<g>
		<path d="M449.399,254.726c0,0-54.418-56.85-54.89-57.169V135.28c0-4.466-3.618-8.084-8.084-8.084
			c-4.466,0-8.084,3.618-8.084,8.084v157.97l-21.78,14.226c0.847-5.228,1.3-10.535,1.3-15.908c0-54.383-44.244-98.627-98.627-98.627
			c-54.383,0-98.627,44.247-98.627,98.63c0,7.038,0.73,13.952,2.171,20.7l-24.807-16.203V16.168h176.056v56.231
			c0,4.466,3.618,8.084,8.084,8.084h56.231v18.144c0,4.466,3.618,8.084,8.084,8.084c4.466,0,8.084-3.619,8.084-8.084V72.399
			c0-2.144-0.852-4.2-2.367-5.717L327.828,2.367C326.31,0.852,324.254,0,322.111,0H129.886c-4.465,0-8.084,3.619-8.084,8.084V194.19
			c-0.038,0.037-0.079,0.069-0.115,0.107l-59.02,60.362c-1.478,1.511-2.305,3.54-2.305,5.652v137.971
			c0,4.466,3.62,8.084,8.084,8.084c4.465,0,8.084-3.619,8.084-8.084V275.248l337.708,220.584H76.531v-56.588
			c0-4.466-3.62-8.084-8.084-8.084c-4.465,0-8.084,3.618-8.084,8.084v64.673c0,4.466,3.62,8.084,8.084,8.084h375.107
			c4.466,0,8.084-3.618,8.084-8.084V260.312C451.638,258.231,450.836,256.231,449.399,254.726z M330.195,27.601l36.714,36.714
			h-36.714V27.601z M121.802,285.506l-40.694-26.581l40.694-41.619V285.506z M394.509,220.688l36.479,38.175l-36.479,23.827V220.688
			z M184.447,326.425c-0.063-0.166-0.123-0.333-0.197-0.497c-4.96-10.805-7.475-22.365-7.475-34.358
			c0-45.469,36.991-82.459,82.459-82.459c45.469,0,82.459,36.99,82.459,82.459c0,10.027-1.794,19.797-5.292,29.075L256,373.162
			L184.447,326.425z M435.469,490.387l-164.686-107.57l164.686-107.57V490.387z"/>
	</g>
</g>
<g>
</g>
<g>
</g>
<g>
</g>
<g>
</g>
<g>
</g>
<g>
</g>
<g>
</g>
<g>
</g>
<g>
</g>
<g>
</g>
<g>
</g>
<g>
</g>
<g>
</g>
<g>
</g>
<g>
</g>
</svg>
